<?xml version="1.0" standalone="no"?>
<!DOCTYPE svg PUBLIC "-//W3C//DTD SVG 20010904//EN"
 "http://www.w3.org/TR/2001/REC-SVG-20010904/DTD/svg10.dtd">
<svg version="1.0" xmlns="http://www.w3.org/2000/svg"
 width="150.000000pt" height="150.000000pt" viewBox="0 0 150.000000 150.000000"
 preserveAspectRatio="xMidYMid meet">
<metadata>
Created by potrace 1.11, written by Peter Selinger 2001-2013
</metadata>
<g transform="translate(0.000000,150.000000) scale(0.100000,-0.100000)"
fill="#000000" stroke="none">
<path d="M685 1439 c-51 -20 -243 -89 -460 -164 l-120 -42 3 -59 c2 -32 15
-147 28 -254 14 -107 29 -233 34 -280 16 -159 32 -275 38 -282 4 -3 36 -22 72
-41 110 -59 263 -142 300 -163 19 -11 67 -37 107 -58 69 -37 72 -37 97 -21 14
10 26 13 26 9 0 -5 4 -4 8 2 4 6 39 28 77 49 39 21 115 62 170 92 55 31 129
71 165 90 36 19 68 38 72 41 3 4 13 68 22 142 9 74 21 171 26 215 32 249 49
397 52 454 l3 64 -140 49 c-77 27 -189 67 -250 88 -60 22 -141 51 -178 65 -81
30 -87 30 -152 4z m475 -174 c11 -13 7 -15 -31 -15 -43 0 -45 13 -4 23 11 3
21 5 21 6 1 0 7 -6 14 -14z m-34 -95 c37 0 44 -3 44 -20 0 -16 7 -20 33 -20
37 0 68 -33 41 -44 -9 -3 -20 -4 -25 0 -5 3 -9 -4 -9 -15 0 -16 6 -21 25 -21
14 0 29 -8 35 -19 13 -26 13 -31 -5 -31 -8 0 -15 -9 -15 -20 0 -13 -7 -20 -20
-20 -14 0 -20 -7 -20 -22 -1 -20 -2 -21 -13 -8 -16 20 -74 60 -86 60 -6 0 -15
-8 -20 -17 -9 -16 -10 -16 -11 5 0 15 -6 22 -20 22 -13 0 -20 -7 -20 -20 0
-17 -7 -20 -40 -20 l-40 0 0 85 c0 78 -2 85 -20 85 -17 0 -20 -7 -20 -45 0
-38 -3 -45 -20 -45 -11 0 -20 -6 -20 -14 0 -7 9 -16 20 -19 12 -3 20 -14 20
-26 0 -14 -6 -21 -20 -21 -13 0 -20 -7 -20 -20 0 -18 -7 -20 -65 -20 -58 0
-65 2 -65 20 0 17 -7 20 -40 20 -33 0 -40 -3 -40 -20 0 -13 -7 -20 -20 -20
-13 0 -20 7 -20 20 0 13 -7 20 -20 20 -13 0 -20 7 -20 20 0 17 -7 20 -40 20
-33 0 -40 -3 -40 -20 0 -13 7 -20 20 -20 13 0 20 -7 20 -20 0 -17 -7 -20 -40
-20 -33 0 -40 -3 -40 -20 0 -17 7 -20 40 -20 33 0 40 -3 40 -20 0 -13 7 -20
20 -20 13 0 20 7 20 20 0 17 7 20 40 20 33 0 40 -3 40 -19 0 -16 8 -20 43 -23
33 -2 42 -7 41 -20 -1 -11 5 -18 17 -18 12 0 19 7 19 20 0 13 -7 20 -20 20
-13 0 -20 7 -20 20 0 17 7 20 45 20 38 0 45 -3 45 -20 0 -13 7 -20 20 -20 18
0 20 -7 20 -65 0 -58 2 -65 20 -65 19 0 28 -25 20 -55 -2 -5 -7 -31 -13 -57
-5 -27 -14 -48 -18 -48 -5 0 -9 -9 -9 -21 0 -12 -8 -23 -20 -26 -11 -3 -20
-12 -20 -19 0 -8 9 -14 20 -14 17 0 20 -7 20 -42 0 -42 -1 -43 -34 -45 -44 -4
-55 13 -27 38 26 25 27 39 1 39 -18 0 -20 4 -14 43 4 23 11 44 16 45 12 5 10
82 -2 82 -5 0 -10 18 -10 40 0 22 5 40 10 40 6 0 10 18 10 40 0 29 -4 40 -15
40 -10 0 -15 -10 -15 -32 0 -25 -6 -36 -25 -45 -23 -10 -25 -9 -25 12 0 14 -7
25 -20 28 -11 3 -20 12 -20 21 0 24 -37 20 -43 -5 -5 -18 -13 -20 -54 -19 -26
1 -69 1 -95 1 l-48 -1 0 -36 c0 -27 -5 -37 -20 -41 -11 -3 -20 -14 -20 -24 0
-14 7 -19 30 -19 24 0 30 -4 30 -21 0 -18 -5 -20 -42 -17 -41 3 -43 4 -41 33
1 17 5 47 9 68 6 37 6 38 -15 25 -11 -7 -21 -21 -21 -30 0 -11 -8 -18 -20 -18
-13 0 -20 7 -20 20 0 11 -5 20 -11 20 -7 0 -9 11 -6 28 20 104 21 102 -2 102
-22 0 -31 -35 -10 -42 8 -3 8 -15 0 -46 -9 -31 -17 -42 -31 -42 -13 0 -20 -7
-20 -19 0 -14 -5 -18 -21 -14 -32 9 -33 28 -5 75 15 25 26 36 26 26 0 -11 8
-18 20 -18 11 0 20 7 20 15 0 8 -6 15 -14 15 -20 0 -26 24 -16 59 4 16 5 32 2
36 -4 3 1 3 11 -1 13 -4 17 -1 17 15 0 14 6 21 20 21 13 0 20 -7 20 -20 0 -13
7 -20 20 -20 18 0 20 7 20 60 0 53 -2 60 -20 60 -13 0 -20 -7 -20 -20 0 -14
-7 -20 -21 -20 -16 0 -20 5 -17 28 6 50 34 62 148 62 l102 0 -5 26 c-3 19 -1
24 10 20 8 -3 19 -6 24 -6 5 0 9 -9 9 -20 0 -14 7 -20 21 -20 15 0 19 5 15 15
-5 13 -2 13 25 -1 17 -8 45 -16 62 -16 38 -1 47 -12 47 -55 0 -23 5 -33 15
-33 11 0 15 12 15 45 l0 45 45 0 c32 0 45 4 45 14 0 8 -6 16 -12 19 -17 5 9
57 29 57 7 0 13 4 13 10 0 5 17 17 38 27 20 9 40 19 45 21 4 2 7 -30 7 -72 l0
-76 40 0 c43 0 57 23 20 33 -18 5 -20 14 -20 75 0 59 3 71 18 74 13 3 18 -4
20 -29 3 -32 5 -33 48 -33z m95 -17 c13 -16 12 -17 -3 -4 -10 7 -18 15 -18 17
0 8 8 3 21 -13z m-934 -215 c-3 -8 -6 -5 -6 6 -1 11 2 17 5 13 3 -3 4 -12 1
-19z m713 -38 c0 -13 -7 -20 -20 -20 -13 0 -20 -7 -20 -20 0 -13 -7 -20 -20
-20 -17 0 -20 7 -20 40 l0 40 40 0 c33 0 40 -3 40 -20z m247 14 c-3 -3 -12 -4
-19 -1 -8 3 -5 6 6 6 11 1 17 -2 13 -5z m-907 -265 c0 -11 7 -19 15 -19 13 0
14 -4 5 -20 -11 -21 -54 -28 -65 -10 -3 5 -3 25 0 44 6 27 11 33 26 29 10 -3
19 -14 19 -24z m9 -141 c-2 -141 -36 -166 -46 -35 l-6 77 27 0 c24 0 26 -3 25
-42z m146 31 c4 -6 10 -38 13 -71 6 -69 -6 -72 -34 -10 -9 20 -22 49 -30 65
-15 27 -15 27 15 27 16 0 33 -5 36 -11z m91 -158 c-15 -24 -36 -11 -36 21 l0
32 21 -21 c12 -11 18 -26 15 -32z"/>
<path d="M1080 1110 c0 -14 7 -20 21 -20 12 0 23 -8 26 -20 3 -11 13 -20 22
-20 13 0 16 8 13 40 -4 39 -5 40 -43 40 -32 0 -39 -3 -39 -20z"/>
<path d="M630 980 c0 -13 7 -20 20 -20 13 0 20 7 20 20 0 13 -7 20 -20 20 -13
0 -20 -7 -20 -20z"/>
<path d="M1170 980 c0 -13 7 -20 20 -20 13 0 20 7 20 20 0 13 -7 20 -20 20
-13 0 -20 -7 -20 -20z"/>
<path d="M430 820 c0 -18 7 -20 60 -20 53 0 60 2 60 20 0 18 -7 20 -60 20 -53
0 -60 -2 -60 -20z"/>
<path d="M590 820 c0 -13 7 -20 20 -20 13 0 20 7 20 20 0 13 -7 20 -20 20 -13
0 -20 -7 -20 -20z"/>
<path d="M340 775 c0 -11 11 -15 40 -15 29 0 40 4 40 15 0 11 -11 15 -40 15
-29 0 -40 -4 -40 -15z"/>
</g>
</svg>
